PathFileType  4	(X/Y/Z) C:\Users\antoi\Documents\MyRepositories\mobilecap\ResultsAnalysis
DataRate	CameraRate	NumFrames	NumMarkers	Units	OrigDataRate	OrigDataStartFrame	OrigNumFrames
100.0	100.0	6	51	mm	100.0	1128	1288
Frame#	Time	r_knee			r_shank_antsup			r_ankle			r_calc			r_5meta			r_toe			L_knee			L_shank_antsup			L_ankle			L_calc			L_5meta			L_toe			r_sh2			r_sh3			r_sh4			L_sh2			L_sh3			r_thigh1			r_thigh2			r_thigh3			r_thigh4			r_thigh5			L_thigh1			L_thigh2			L_thigh3			L_thigh4			r.ASIS			r.PSIS			L.ASIS			L.PSIS			C7			R_Shoulder			L_Shoulder			R_Sternum			L_Sternum			R_humerus			R_elbow_med			R_elbow_lat			R_forearm			R_wrist_radius			R_wrist_ulna			L_humerus			L_elbow_med			L_elbow_lat			L_forearm			L_wrist_radius			L_wrist_ulna			R_HJC			L_HJC			R_HJC_reg			L_HJC_reg			
		X1	Y1	Z1	X2	Y2	Z2	X3	Y3	Z3	X4	Y4	Z4	X5	Y5	Z5	X6	Y6	Z6	X7	Y7	Z7	X8	Y8	Z8	X9	Y9	Z9	X10	Y10	Z10	X11	Y11	Z11	X12	Y12	Z12	X13	Y13	Z13	X14	Y14	Z14	X15	Y15	Z15	X16	Y16	Z16	X17	Y17	Z17	X18	Y18	Z18	X19	Y19	Z19	X20	Y20	Z20	X21	Y21	Z21	X22	Y22	Z22	X23	Y23	Z23	X24	Y24	Z24	X25	Y25	Z25	X26	Y26	Z26	X27	Y27	Z27	X28	Y28	Z28	X29	Y29	Z29	X30	Y30	Z30	X31	Y31	Z31	X32	Y32	Z32	X33	Y33	Z33	X34	Y34	Z34	X35	Y35	Z35	X36	Y36	Z36	X37	Y37	Z37	X38	Y38	Z38	X39	Y39	Z39	X40	Y40	Z40	X41	Y41	Z41	X42	Y42	Z42	X43	Y43	Z43	X44	Y44	Z44	X45	Y45	Z45	X46	Y46	Z46	X47	Y47	Z47	X48	Y48	Z48	X49	Y49	Z49	X50	Y50	Z50	X51	Y51	Z51	

1128	11.27000000	-137.23674	429.78691	-373.26366	-139.90353	363.12088	-345.08928	-272.82897	92.73931	-392.59090	-336.73471	56.06102	-439.90574	-178.29641	45.18255	-348.36870	-128.67447	68.67412	-396.28562	-141.35324	425.98947	-833.30505	-114.99035	350.96679	-843.72984	-268.44544	92.06877	-792.09106	-338.12226	58.01091	-739.05955	-181.60008	41.67019	-825.88203	-128.18794	66.34412	-775.94166	-187.63976	259.48196	-344.89033	-203.56222	391.99599	-371.05279	-258.65870	289.21272	-375.02353	-194.36154	392.05454	-852.67706	-239.65056	278.36003	-844.22204	-315.92625	667.48053	-437.66516	-228.17484	604.96858	-407.61355	-244.72232	561.41567	-359.17581	-382.44323	605.79322	-371.08998	-293.33978	531.21494	-359.43208	-312.40847	652.14590	-781.74956	-203.80654	572.83387	-812.41659	-388.09331	565.76034	-804.79586	-270.43966	488.06245	-828.00681	-324.90020	683.78119	-458.59913	-468.17304	786.35155	-537.14750	-315.05078	677.27326	-711.67676	-468.22846	783.17586	-645.44757	-157.94209	1111.81840	-580.12601	-108.96509	1041.46075	-434.01119	-99.88910	1039.06390	-738.69786	-72.12213	991.98484	-562.52316	-72.23757	992.64999	-605.22267	-119.96680	828.96688	-328.81696	-131.23769	712.71672	-377.25845	-134.08626	747.70894	-303.65550	-39.71600	809.08056	-323.06378	50.34511	864.47066	-359.17592	76.26796	829.76443	-347.85569	-74.94053	924.90747	-801.46175	-90.08162	702.77214	-803.62687	-95.10252	727.11230	-873.32247	-2.32780	791.12100	-861.38365	92.17562	845.32109	-816.18319	117.22620	819.95655	-827.89793	-416.63359	649.39805	-487.28546	-405.44126	645.60275	-687.22751	-414.35751	644.62426	-493.09082	-414.44312	639.72303	-660.23346	
1129	11.28000000	-135.25918	428.72037	-372.66632	-138.12139	362.10222	-344.65506	-272.63781	92.75621	-392.59244	-336.68564	56.14361	-439.99013	-178.31554	45.27487	-348.19421	-128.58593	68.54100	-396.28800	-139.63976	424.75505	-834.15129	-113.25431	349.53523	-844.31776	-268.34020	91.99704	-792.02017	-338.08949	58.07341	-739.04529	-181.60688	41.66764	-825.92184	-128.15112	66.25682	-775.94889	-186.46204	259.01016	-344.49367	-201.43975	391.33227	-370.34892	-257.26451	289.08543	-374.96959	-192.37473	391.18766	-853.85202	-238.29404	277.76257	-845.12117	-317.20417	663.03087	-437.93945	-228.54860	602.48246	-406.83597	-244.32967	558.92774	-358.79250	-382.38397	601.42460	-370.48129	-292.45126	527.95922	-358.84995	-314.05114	647.89600	-781.23000	-204.16160	570.71668	-812.70333	-388.39271	560.72635	-805.08706	-269.59162	484.90731	-828.51789	-325.23680	679.17269	-458.01950	-468.83391	780.24564	-537.36057	-315.65113	671.14717	-711.40225	-468.61986	777.07568	-645.78250	-156.67744	1103.40948	-580.03302	-108.04791	1033.17681	-433.86848	-98.55486	1030.29822	-738.29995	-70.96199	983.32733	-562.12474	-71.21099	983.83175	-604.63821	-118.07949	821.31129	-328.08958	-128.60319	704.83185	-376.34956	-131.75297	739.98625	-302.84537	-37.97248	802.29176	-322.43235	51.43003	858.44084	-358.96751	77.73857	824.04597	-347.46655	-73.11418	916.30916	-801.00322	-88.26764	693.72540	-803.75186	-92.14701	718.62281	-873.19813	0.25834	782.88842	-860.67872	94.42667	837.80579	-815.59173	119.49259	812.50152	-826.99843	-416.84758	644.15068	-486.74400	-405.65692	639.27899	-686.66498	-414.71531	638.32112	-492.76250	-414.38614	633.42773	-660.12504	
1130	11.29000000	-133.20354	427.59630	-371.92850	-136.33240	361.07738	-344.09673	-272.47213	92.79330	-392.57027	-336.63618	56.20436	-440.05033	-178.28934	45.26361	-348.20760	-128.51900	68.40361	-396.29081	-137.98485	423.60079	-834.97060	-111.58946	348.20497	-844.88027	-268.22025	91.95919	-791.94225	-338.04311	58.14771	-739.03194	-181.59662	41.67802	-825.96171	-128.09277	66.16830	-775.88039	-185.42631	258.45594	-344.11285	-199.29770	390.62824	-369.51067	-255.73194	289.10618	-374.71830	-190.48577	390.30797	-854.66150	-237.16180	277.17212	-845.49601	-318.03824	658.19806	-438.42287	-229.10381	600.08533	-405.57750	-243.85263	556.04967	-358.74372	-382.32562	596.93972	-370.03830	-291.50868	524.61775	-358.30745	-315.53278	643.79878	-780.58957	-204.42810	568.70526	-812.71677	-388.71276	555.90319	-805.39217	-268.67965	481.94137	-829.02752	-325.65274	673.92970	-458.44560	-469.57362	774.09926	-537.62158	-316.23219	665.10377	-711.29187	-468.87844	770.93838	-646.11453	-155.45256	1095.13320	-580.09119	-107.14628	1024.93214	-433.68247	-97.26646	1021.62963	-737.88534	-69.82681	974.69271	-561.53362	-70.26234	975.22493	-604.20279	-116.29016	813.76228	-327.26421	-126.00914	697.06170	-375.48007	-129.46000	732.36257	-301.90553	-36.34246	795.55236	-321.79617	52.39994	852.45409	-358.53672	79.13235	818.40208	-346.96761	-71.33627	907.83622	-800.53596	-86.20389	685.00255	-803.68368	-89.40259	710.13736	-872.81588	2.62145	774.73839	-859.97546	96.51438	830.20866	-814.97311	121.65032	805.06676	-826.27185	-417.14484	638.46958	-486.75513	-405.98616	633.11099	-686.66518	-415.21657	632.13945	-493.49578	-414.14718	627.27356	-660.51582	
1131	11.30000000	-131.10522	426.45669	-370.99258	-134.52221	360.03190	-343.46665	-272.28736	92.85849	-392.61820	-336.57227	56.25607	-440.10944	-178.24136	45.19597	-348.26146	-128.44434	68.25035	-396.25951	-136.35136	422.51975	-835.71394	-109.99035	347.04502	-845.48079	-268.08795	91.95316	-791.91075	-337.97845	58.27108	-739.07379	-181.61872	41.63908	-825.99449	-128.00382	66.05552	-775.82099	-184.23824	257.60198	-343.83586	-197.33856	390.01462	-368.83022	-254.20065	289.08352	-374.25294	-188.64869	389.49986	-855.25456	-236.01892	276.73960	-845.73288	-318.69301	653.33237	-438.71846	-229.37457	597.16246	-404.98298	-243.31704	552.77763	-358.69509	-382.28988	592.27358	-369.75645	-290.58601	521.07960	-357.80296	-316.82661	640.12755	-780.52105	-204.72120	566.67857	-812.34567	-388.92301	551.24702	-805.68630	-267.63796	479.26955	-829.73195	-326.01182	668.48075	-459.06517	-470.16934	767.85095	-537.74635	-316.83461	659.12845	-711.19771	-469.15917	764.77047	-646.18275	-154.02792	1086.83662	-580.29388	-106.26778	1016.82024	-433.42440	-95.95768	1013.01711	-737.38426	-68.84105	966.07321	-560.76620	-69.29244	967.05300	-604.07756	-114.57667	806.26150	-326.50700	-123.60431	689.27417	-374.20716	-127.23785	724.83318	-300.85511	-34.90523	788.86608	-321.22652	53.28337	846.52347	-357.93925	80.37034	812.86890	-346.34997	-69.73988	899.52955	-800.06369	-83.85567	676.60642	-803.67349	-86.84514	701.79709	-872.49121	4.77747	766.78616	-859.40363	98.34869	822.64819	-814.32157	123.72296	797.73774	-825.74319	-417.33642	632.60531	-486.80022	-406.35847	626.99349	-686.71238	-415.55132	625.95967	-494.27690	-413.99879	621.22807	-660.83533	
1132	11.31000000	-129.14411	425.21161	-370.26571	-132.66744	358.92790	-342.89922	-272.05119	92.89319	-392.76633	-336.48552	56.30694	-440.21347	-178.19771	45.15526	-348.25657	-128.33007	68.06119	-396.23758	-134.69346	421.47911	-836.33383	-108.41821	345.98051	-846.12815	-267.94681	91.96562	-791.92244	-337.89755	58.38376	-739.12647	-181.63570	41.56944	-826.01978	-127.91248	65.92750	-775.84845	-182.75645	256.65829	-343.60386	-195.55582	389.49849	-368.45260	-252.80641	288.91982	-373.91593	-186.83971	388.68936	-855.70767	-234.74242	276.40376	-846.23215	-319.44170	648.41028	-439.04142	-229.22401	593.65847	-405.05052	-242.84431	549.30254	-358.46314	-382.18850	587.35737	-369.50522	-289.75821	517.20473	-357.36905	-318.04397	636.68744	-780.76653	-205.02233	564.69080	-811.96250	-388.99231	546.74208	-806.12682	-266.50607	476.72519	-830.48742	-326.26539	663.03732	-459.44554	-470.58478	761.51737	-537.63221	-317.43468	653.26592	-711.13858	-469.53443	758.59032	-646.03782	-152.57027	1078.55108	-580.20363	-105.44856	1008.99118	-432.94940	-94.65360	1004.52022	-736.81568	-67.96119	957.63193	-560.11977	-68.30860	958.91465	-603.90140	-112.91292	798.87849	-325.59964	-121.34191	681.56870	-372.75604	-125.11628	717.40703	-299.66793	-33.53364	782.20193	-320.49934	54.12903	840.61555	-357.30524	81.49025	807.33414	-345.64208	-68.32649	891.22047	-799.43645	-81.40685	668.26123	-803.79627	-84.48083	693.65576	-872.34552	6.83721	758.95805	-858.90151	100.00588	815.27600	-813.75476	125.64437	790.43307	-825.12634	-417.36466	626.69385	-486.69920	-406.70452	620.91463	-686.62397	-415.64588	619.73830	-494.65402	-414.03483	615.24808	-660.93058	
1133	11.32000000	-127.38310	423.94588	-369.94687	-130.73414	357.77679	-342.42846	-271.80254	92.87791	-392.97211	-336.38906	56.35599	-440.38377	-178.18168	45.12306	-348.24153	-128.18770	67.83045	-396.25411	-133.02673	420.45200	-836.97179	-106.83880	344.82515	-846.73667	-267.81603	91.98589	-791.96795	-337.82546	58.40767	-739.11398	-181.61419	41.52927	-826.06193	-127.85126	65.77785	-775.92484	-181.25679	255.82044	-343.41600	-193.71477	389.11779	-368.13221	-251.38891	288.38597	-373.63763	-185.03296	387.84411	-856.15610	-233.52507	275.93498	-846.64638	-320.32219	643.32634	-439.37087	-229.00132	590.12811	-404.86274	-242.45763	545.77190	-358.18117	-382.00023	582.32178	-369.15487	-289.01634	513.06711	-357.06815	-319.23616	633.12046	-780.67164	-205.26363	562.81204	-811.88372	-388.97061	542.31043	-806.69510	-265.42576	474.02840	-830.97344	-326.58534	657.45151	-459.65978	-470.96303	755.16682	-537.34112	-317.96081	647.53680	-711.16801	-469.95049	752.41708	-645.76226	-151.34013	1070.46190	-579.71582	-104.64578	1001.29805	-432.38179	-93.48275	996.22564	-736.31705	-67.12749	949.42492	-559.69539	-67.41553	950.40905	-603.32842	-111.29723	791.61430	-324.50687	-119.00894	674.12150	-371.75673	-123.07035	710.03096	-298.46591	-32.12555	775.55690	-319.44443	54.92921	834.72479	-356.69839	82.55738	801.75655	-344.84525	-66.95936	882.76212	-798.59479	-79.09552	659.96656	-803.69813	-82.30804	685.61720	-872.15773	8.78108	751.20234	-858.46307	101.63016	808.00320	-813.21476	127.38501	783.14534	-824.43484	-417.40518	620.66654	-486.59579	-407.02446	614.93668	-686.53691	-415.75476	613.52810	-494.85449	-414.20371	609.31353	-661.01519	
